<?xml version="1.0" encoding="UTF-8" standalone="no"?>
<!DOCTYPE svg PUBLIC "-//W3C//DTD SVG 1.1//EN" "http://www.w3.org/Graphics/SVG/1.1/DTD/svg11.dtd">
<svg xmlns="http://www.w3.org/2000/svg" xmlns:xlink="http://www.w3.org/1999/xlink" version="1.1" width="569.334pt" height="328.0869pt" viewBox="0 0 569.334 328.0869">
<rect width="100%" height="100%" fill="white"/>
<g enable-background="new">
<g>
<clipPath id="cp0">
<path transform="matrix(1,0,0,-1,0,328.0869)" d="M 0 0 L 569.334 0 L 569.334 328.0869 L 0 328.0869 Z "/>
</clipPath>
<g clip-path="url(#cp0)">
<path stroke-width=".5" stroke-linecap="butt" stroke-miterlimit="4" stroke-linejoin="miter" fill="none" stroke="#b8b8b8" d="M 79 219.5869 L 569 219.5869 "/>
<path stroke-width=".5" stroke-linecap="butt" stroke-miterlimit="4" stroke-linejoin="miter" fill="none" stroke="#b8b8b8" d="M 79 150.5869 L 569 150.5869 "/>
<path stroke-width=".5" stroke-linecap="butt" stroke-miterlimit="4" stroke-linejoin="miter" fill="none" stroke="#b8b8b8" d="M 79 82.58685 L 569 82.58685 "/>
<path stroke-width=".5" stroke-linecap="butt" stroke-miterlimit="4" stroke-linejoin="miter" fill="none" stroke="#b8b8b8" d="M 79 13.58685 L 569 13.58685 "/>
</g>
<clipPath id="cp1">
<path transform="matrix(1,0,0,-1,0,328.0869)" d="M 0 39.64996 L -.0000120107 314.4229 L 20.496 314.4229 L 20.49601 39.64996 Z "/>
</clipPath>
<g clip-path="url(#cp1)">
<clipPath id="cp2">
<path transform="matrix(1,0,0,-1,0,328.0869)" d="M 0 0 L 569.334 0 L 569.334 328.0869 L 0 328.0869 Z "/>
</clipPath>
<g clip-path="url(#cp2)">
<text xml:space="preserve" transform="matrix(0 -1 1 0 11.10803 182.06452)" font-size="12" font-family="HelveticaNeue"><tspan y="0" x="0 6.888 13.560001 17.340003 24.228003 30.900004 37.788003 44.460004 51.576005 58.248006">Throughput</tspan></text>
</g>
</g>
<clipPath id="cp3">
<path transform="matrix(1,0,0,-1,0,328.0869)" d="M 26.168 31.81796 L 67.843997 31.81796 L 67.843997 47.48196 L 26.168 47.48196 Z "/>
</clipPath>
<g clip-path="url(#cp3)">
<text xml:space="preserve" transform="matrix(1 0 -0 1 27.668 292.71299)" font-size="12" font-family="HelveticaNeue"><tspan y="0" x="0 6.672001 10.008001 20.460003 28.680005 32.676004">0 MB/s</tspan></text>
</g>
<clipPath id="cp4">
<path transform="matrix(1,0,0,-1,0,328.0869)" d="M 19.496 100.5112 L 67.844 100.5112 L 67.844 116.1752 L 19.496 116.1752 Z "/>
</clipPath>
<g clip-path="url(#cp4)">
<text xml:space="preserve" transform="matrix(1 0 -0 1 20.996 224.01972)" font-size="12" font-family="HelveticaNeue"><tspan y="0" x="0 6.672001 13.344002 16.680003 27.132004 35.352006 39.348005">10 MB/s</tspan></text>
</g>
<clipPath id="cp5">
<path transform="matrix(1,0,0,-1,0,328.0869)" d="M 19.496 169.2044 L 67.844 169.2044 L 67.844 184.86841 L 19.496 184.86841 Z "/>
</clipPath>
<g clip-path="url(#cp5)">
<text xml:space="preserve" transform="matrix(1 0 -0 1 20.996 155.3265)" font-size="12" font-family="HelveticaNeue"><tspan y="0" x="0 6.672001 13.344002 16.680003 27.132004 35.352006 39.348005">20 MB/s</tspan></text>
</g>
<clipPath id="cp6">
<path transform="matrix(1,0,0,-1,0,328.0869)" d="M 19.496 237.8976 L 67.844 237.8976 L 67.844 253.5616 L 19.496 253.5616 Z "/>
</clipPath>
<g clip-path="url(#cp6)">
<text xml:space="preserve" transform="matrix(1 0 -0 1 20.996 86.633319)" font-size="12" font-family="HelveticaNeue"><tspan y="0" x="0 6.672001 13.344002 16.680003 27.132004 35.352006 39.348005">30 MB/s</tspan></text>
</g>
<clipPath id="cp7">
<path transform="matrix(1,0,0,-1,0,328.0869)" d="M 19.496 306.5909 L 67.844 306.5909 L 67.844 322.2549 L 19.496 322.2549 Z "/>
</clipPath>
<g clip-path="url(#cp7)">
<text xml:space="preserve" transform="matrix(1 0 -0 1 20.996 17.940125)" font-size="12" font-family="HelveticaNeue"><tspan y="0" x="0 6.672001 13.344002 16.680003 27.132004 35.352006 39.348005">40 MB/s</tspan></text>
</g>
<clipPath id="cp8">
<path transform="matrix(1,0,0,-1,0,328.0869)" d="M 0 0 L 569.334 0 L 569.334 328.0869 L 0 328.0869 Z "/>
</clipPath>
<g clip-path="url(#cp8)">
<path stroke-width="1" stroke-linecap="square" stroke-miterlimit="4" stroke-linejoin="miter" fill="none" stroke="#000000" d="M 78.5 288.5869 L 568.5 288.5869 "/>
</g>
<clipPath id="cp9">
<path transform="matrix(1,0,0,-1,0,328.0869)" d="M 78.83396 0 L 568.834 0 L 568.834 20.496 L 78.83396 20.496 Z "/>
</clipPath>
<g clip-path="url(#cp9)">
<text xml:space="preserve" transform="matrix(1 0 -0 1 288.266 325.53096)" font-size="12" font-family="HelveticaNeue"><tspan y="0" x="0 6.888 13.560001 17.340003 23.784003 30.228003 37.344 40.68 47.124 54.012 60.684003 67.356">Thread count</tspan></text>
</g>
<clipPath id="cp10">
<path transform="matrix(1,0,0,-1,0,328.0869)" d="M 108.998 19.496 L 118.67 19.496 L 118.67 35.16 L 108.998 35.16 Z "/>
</clipPath>
<g clip-path="url(#cp10)">
<text xml:space="preserve" transform="matrix(1 0 -0 1 110.498 305.03495)" font-size="12" font-family="HelveticaNeue"><tspan y="0" x="0">1</tspan></text>
</g>
<clipPath id="cp11">
<path transform="matrix(1,0,0,-1,0,328.0869)" d="M 178.998 19.496 L 188.67 19.496 L 188.67 35.16 L 178.998 35.16 Z "/>
</clipPath>
<g clip-path="url(#cp11)">
<text xml:space="preserve" transform="matrix(1 0 -0 1 180.498 305.03495)" font-size="12" font-family="HelveticaNeue"><tspan y="0" x="0">2</tspan></text>
</g>
<clipPath id="cp12">
<path transform="matrix(1,0,0,-1,0,328.0869)" d="M 248.998 19.496 L 258.67 19.496 L 258.67 35.16 L 248.998 35.16 Z "/>
</clipPath>
<g clip-path="url(#cp12)">
<text xml:space="preserve" transform="matrix(1 0 -0 1 250.498 305.03495)" font-size="12" font-family="HelveticaNeue"><tspan y="0" x="0">4</tspan></text>
</g>
<clipPath id="cp13">
<path transform="matrix(1,0,0,-1,0,328.0869)" d="M 318.998 19.496 L 328.66999 19.496 L 328.66999 35.16 L 318.998 35.16 Z "/>
</clipPath>
<g clip-path="url(#cp13)">
<text xml:space="preserve" transform="matrix(1 0 -0 1 320.498 305.03495)" font-size="12" font-family="HelveticaNeue"><tspan y="0" x="0">8</tspan></text>
</g>
<clipPath id="cp14">
<path transform="matrix(1,0,0,-1,0,328.0869)" d="M 385.662 19.496 L 402.00599 19.496 L 402.00599 35.16 L 385.662 35.16 Z "/>
</clipPath>
<g clip-path="url(#cp14)">
<text xml:space="preserve" transform="matrix(1 0 -0 1 387.162 305.03495)" font-size="12" font-family="HelveticaNeue"><tspan y="0" x="0 6.672001">16</tspan></text>
</g>
<clipPath id="cp15">
<path transform="matrix(1,0,0,-1,0,328.0869)" d="M 455.662 19.496 L 472.00599 19.496 L 472.00599 35.16 L 455.662 35.16 Z "/>
</clipPath>
<g clip-path="url(#cp15)">
<text xml:space="preserve" transform="matrix(1 0 -0 1 457.162 305.03495)" font-size="12" font-family="HelveticaNeue"><tspan y="0" x="0 6.672001">32</tspan></text>
</g>
<clipPath id="cp16">
<path transform="matrix(1,0,0,-1,0,328.0869)" d="M 525.662 19.496 L 542.006 19.496 L 542.006 35.16 L 525.662 35.16 Z "/>
</clipPath>
<g clip-path="url(#cp16)">
<text xml:space="preserve" transform="matrix(1 0 -0 1 527.162 305.03495)" font-size="12" font-family="HelveticaNeue"><tspan y="0" x="0 6.672001">64</tspan></text>
</g>
<clipPath id="cp17">
<path transform="matrix(1,0,0,-1,0,328.0869)" d="M 115 40 L 143 40 L 143 52 L 115 52 Z "/>
</clipPath>
<g clip-path="url(#cp17)">
<g>
<clipPath id="cp18">
<path transform="matrix(1,0,0,1,115,276.0869)" d="M 0 0 L 28 0 L 28 12 L 0 12 Z "/>
</clipPath>
<g clip-path="url(#cp18)">
<clipPath id="cp19">
<path transform="matrix(1,0,0,1,115,276.0869)" d="M 0 0 L 28 0 L 28 12 L 0 12 Z "/>
</clipPath>
<g clip-path="url(#cp19)">
<path transform="matrix(1,0,0,1,115,276.0869)" d="M 0 0 L 28 0 L 28 12 L 0 12 Z " fill="#61d836"/>
</g>
</g>
</g>
</g>
<clipPath id="cp20">
<path transform="matrix(1,0,0,-1,0,328.0869)" d="M 185 40 L 213 40 L 213 61 L 185 61 Z "/>
</clipPath>
<g clip-path="url(#cp20)">
<g>
<clipPath id="cp21">
<path transform="matrix(1,0,0,1,185,267.0869)" d="M 0 0 L 28 0 L 28 21 L 0 21 Z "/>
</clipPath>
<g clip-path="url(#cp21)">
<clipPath id="cp22">
<path transform="matrix(1,0,0,1,185,267.0869)" d="M 0 0 L 28 0 L 28 21 L 0 21 Z "/>
</clipPath>
<g clip-path="url(#cp22)">
<path transform="matrix(1,0,0,1,185,267.0869)" d="M 0 0 L 28 0 L 28 21 L 0 21 Z " fill="#61d836"/>
</g>
</g>
</g>
</g>
<clipPath id="cp23">
<path transform="matrix(1,0,0,-1,0,328.0869)" d="M 255 40 L 283 40 L 283 74 L 255 74 Z "/>
</clipPath>
<g clip-path="url(#cp23)">
<g>
<clipPath id="cp24">
<path transform="matrix(1,0,0,1,255,254.08692)" d="M 0 0 L 28 0 L 28 34 L 0 34 Z "/>
</clipPath>
<g clip-path="url(#cp24)">
<clipPath id="cp25">
<path transform="matrix(1,0,0,1,255,254.08692)" d="M 0 0 L 28 0 L 28 34 L 0 34 Z "/>
</clipPath>
<g clip-path="url(#cp25)">
<path transform="matrix(1,0,0,1,255,254.08692)" d="M 0 0 L 28 0 L 28 34 L 0 34 Z " fill="#61d836"/>
</g>
</g>
</g>
</g>
<clipPath id="cp26">
<path transform="matrix(1,0,0,-1,0,328.0869)" d="M 325 40 L 353 40 L 353 80 L 325 80 Z "/>
</clipPath>
<g clip-path="url(#cp26)">
<g>
<clipPath id="cp27">
<path transform="matrix(1,0,0,1,325,248.08692)" d="M 0 0 L 28 0 L 28 40 L 0 40 Z "/>
</clipPath>
<g clip-path="url(#cp27)">
<clipPath id="cp28">
<path transform="matrix(1,0,0,1,325,248.08692)" d="M 0 0 L 28 0 L 28 40 L 0 40 Z "/>
</clipPath>
<g clip-path="url(#cp28)">
<path transform="matrix(1,0,0,1,325,248.08692)" d="M 0 0 L 28 0 L 28 40 L 0 40 Z " fill="#61d836"/>
</g>
</g>
</g>
</g>
<clipPath id="cp29">
<path transform="matrix(1,0,0,-1,0,328.0869)" d="M 395 40 L 423 40 L 423 83 L 395 83 Z "/>
</clipPath>
<g clip-path="url(#cp29)">
<g>
<clipPath id="cp30">
<path transform="matrix(1,0,0,1,395,245.08692)" d="M 0 0 L 28 0 L 28 43 L 0 43 Z "/>
</clipPath>
<g clip-path="url(#cp30)">
<clipPath id="cp31">
<path transform="matrix(1,0,0,1,395,245.08692)" d="M 0 0 L 28 0 L 28 43 L 0 43 Z "/>
</clipPath>
<g clip-path="url(#cp31)">
<path transform="matrix(1,0,0,1,395,245.08692)" d="M 0 0 L 28 0 L 28 43 L 0 43 Z " fill="#61d836"/>
</g>
</g>
</g>
</g>
<clipPath id="cp32">
<path transform="matrix(1,0,0,-1,0,328.0869)" d="M 465 40 L 493 40 L 493 85 L 465 85 Z "/>
</clipPath>
<g clip-path="url(#cp32)">
<g>
<clipPath id="cp33">
<path transform="matrix(1,0,0,1,465,243.08692)" d="M 0 0 L 28 0 L 28 45 L 0 45 Z "/>
</clipPath>
<g clip-path="url(#cp33)">
<clipPath id="cp34">
<path transform="matrix(1,0,0,1,465,243.08692)" d="M 0 0 L 28 0 L 28 45 L 0 45 Z "/>
</clipPath>
<g clip-path="url(#cp34)">
<path transform="matrix(1,0,0,1,465,243.08692)" d="M 0 0 L 28 0 L 28 45 L 0 45 Z " fill="#61d836"/>
</g>
</g>
</g>
</g>
<clipPath id="cp35">
<path transform="matrix(1,0,0,-1,0,328.0869)" d="M 535 40 L 563 40 L 563 88 L 535 88 Z "/>
</clipPath>
<g clip-path="url(#cp35)">
<g>
<clipPath id="cp36">
<path transform="matrix(1,0,0,1,535,240.08692)" d="M 0 0 L 28 0 L 28 48 L 0 48 Z "/>
</clipPath>
<g clip-path="url(#cp36)">
<clipPath id="cp37">
<path transform="matrix(1,0,0,1,535,240.08692)" d="M 0 0 L 28 0 L 28 48 L 0 48 Z "/>
</clipPath>
<g clip-path="url(#cp37)">
<path transform="matrix(1,0,0,1,535,240.08692)" d="M 0 0 L 28 0 L 28 48 L 0 48 Z " fill="#61d836"/>
</g>
</g>
</g>
</g>
<clipPath id="cp38">
<path transform="matrix(1,0,0,-1,0,328.0869)" d="M 84 40 L 112 40 L 112 84 L 84 84 Z "/>
</clipPath>
<g clip-path="url(#cp38)">
<g>
<clipPath id="cp39">
<path transform="matrix(1,0,0,1,84,244.08692)" d="M 0 0 L 28 0 L 28 44 L 0 44 Z "/>
</clipPath>
<g clip-path="url(#cp39)">
<clipPath id="cp40">
<path transform="matrix(1,0,0,1,84,244.08692)" d="M 0 0 L 28 0 L 28 44 L 0 44 Z "/>
</clipPath>
<g clip-path="url(#cp40)">
<path transform="matrix(1,0,0,1,84,244.08692)" d="M 0 0 L 28 0 L 28 44 L 0 44 Z " fill="#00a2ff"/>
</g>
</g>
</g>
</g>
<clipPath id="cp41">
<path transform="matrix(1,0,0,-1,0,328.0869)" d="M 154 40 L 182 40 L 182 123 L 154 123 Z "/>
</clipPath>
<g clip-path="url(#cp41)">
<g>
<clipPath id="cp42">
<path transform="matrix(1,0,0,1,154,205.08692)" d="M 0 0 L 28 0 L 28 83 L 0 83 Z "/>
</clipPath>
<g clip-path="url(#cp42)">
<clipPath id="cp43">
<path transform="matrix(1,0,0,1,154,205.08692)" d="M 0 0 L 28 0 L 28 83 L 0 83 Z "/>
</clipPath>
<g clip-path="url(#cp43)">
<path transform="matrix(1,0,0,1,154,205.08692)" d="M 0 0 L 28 0 L 28 83 L 0 83 Z " fill="#00a2ff"/>
</g>
</g>
</g>
</g>
<clipPath id="cp44">
<path transform="matrix(1,0,0,-1,0,328.0869)" d="M 224 40 L 252 40 L 252 189 L 224 189 Z "/>
</clipPath>
<g clip-path="url(#cp44)">
<g>
<clipPath id="cp45">
<path transform="matrix(1,0,0,1,224,139.08692)" d="M 0 0 L 28 0 L 28 149 L 0 149 Z "/>
</clipPath>
<g clip-path="url(#cp45)">
<clipPath id="cp46">
<path transform="matrix(1,0,0,1,224,139.08692)" d="M 0 0 L 28 0 L 28 149 L 0 149 Z "/>
</clipPath>
<g clip-path="url(#cp46)">
<path transform="matrix(1,0,0,1,224,139.08692)" d="M 0 0 L 28 0 L 28 149 L 0 149 Z " fill="#00a2ff"/>
</g>
</g>
</g>
</g>
<clipPath id="cp47">
<path transform="matrix(1,0,0,-1,0,328.0869)" d="M 294 40 L 322 40 L 322 258 L 294 258 Z "/>
</clipPath>
<g clip-path="url(#cp47)">
<g>
<clipPath id="cp48">
<path transform="matrix(1,0,0,1,294,70.086917)" d="M 0 0 L 28 0 L 28 218 L 0 218 Z "/>
</clipPath>
<g clip-path="url(#cp48)">
<clipPath id="cp49">
<path transform="matrix(1,0,0,1,294,70.086917)" d="M 0 0 L 28 0 L 28 218 L 0 218 Z "/>
</clipPath>
<g clip-path="url(#cp49)">
<path transform="matrix(1,0,0,1,294,70.086917)" d="M 0 0 L 28 0 L 28 218 L 0 218 Z " fill="#00a2ff"/>
</g>
</g>
</g>
</g>
<clipPath id="cp50">
<path transform="matrix(1,0,0,-1,0,328.0869)" d="M 364 40 L 392 40 L 392 303 L 364 303 Z "/>
</clipPath>
<g clip-path="url(#cp50)">
<g>
<clipPath id="cp51">
<path transform="matrix(1,0,0,1,364,25.086915)" d="M 0 0 L 28 0 L 28 263 L 0 263 Z "/>
</clipPath>
<g clip-path="url(#cp51)">
<clipPath id="cp52">
<path transform="matrix(1,0,0,1,364,25.086915)" d="M 0 0 L 28 0 L 28 263 L 0 263 Z "/>
</clipPath>
<g clip-path="url(#cp52)">
<path transform="matrix(1,0,0,1,364,25.086915)" d="M 0 0 L 28 0 L 28 263 L 0 263 Z " fill="#00a2ff"/>
</g>
</g>
</g>
</g>
<clipPath id="cp53">
<path transform="matrix(1,0,0,-1,0,328.0869)" d="M 434 40 L 462 40 L 462 203 L 434 203 Z "/>
</clipPath>
<g clip-path="url(#cp53)">
<g>
<clipPath id="cp54">
<path transform="matrix(1,0,0,1,434,125.086917)" d="M 0 0 L 28 0 L 28 163 L 0 163 Z "/>
</clipPath>
<g clip-path="url(#cp54)">
<clipPath id="cp55">
<path transform="matrix(1,0,0,1,434,125.086917)" d="M 0 0 L 28 0 L 28 163 L 0 163 Z "/>
</clipPath>
<g clip-path="url(#cp55)">
<path transform="matrix(1,0,0,1,434,125.086917)" d="M 0 0 L 28 0 L 28 163 L 0 163 Z " fill="#00a2ff"/>
</g>
</g>
</g>
</g>
<clipPath id="cp56">
<path transform="matrix(1,0,0,-1,0,328.0869)" d="M 504 40 L 532 40 L 532 195 L 504 195 Z "/>
</clipPath>
<g clip-path="url(#cp56)">
<g>
<clipPath id="cp57">
<path transform="matrix(1,0,0,1,504,133.08692)" d="M 0 0 L 28 0 L 28 155 L 0 155 Z "/>
</clipPath>
<g clip-path="url(#cp57)">
<clipPath id="cp58">
<path transform="matrix(1,0,0,1,504,133.08692)" d="M 0 0 L 28 0 L 28 155 L 0 155 Z "/>
</clipPath>
<g clip-path="url(#cp58)">
<path transform="matrix(1,0,0,1,504,133.08692)" d="M 0 0 L 28 0 L 28 155 L 0 155 Z " fill="#00a2ff"/>
</g>
</g>
</g>
</g>
<clipPath id="cp59">
<path transform="matrix(1,0,0,-1,0,328.0869)" d="M 0 0 L 569.334 0 L 569.334 328.0869 L 0 328.0869 Z "/>
</clipPath>
<g clip-path="url(#cp59)">
<path transform="matrix(1,0,0,-1,0,328.0869)" d="M 459 291 L 471 291 L 471 280 L 459 280 Z " fill="#00a2ff"/>
<text xml:space="preserve" transform="matrix(1 0 -0 1 477.8753 46.772127)" font-size="12" font-family="HelveticaNeue"><tspan y="0" x="0 3.7800003 6.4440004 12.672001 16.452002 23.340003 29.568003 36.012">tiktoken</tspan></text>
<path transform="matrix(1,0,0,-1,0,328.0869)" d="M 459 278 L 471 278 L 471 266 L 459 266 Z " fill="#61d836"/>
<text xml:space="preserve" transform="matrix(1 0 -0 1 477.8753 60.436128)" font-size="12" font-family="HelveticaNeue"><tspan y="0" x="0 6.672001 13.344002 20.232003 27.120003 29.784003 36.456 43.344 46.896005 53.340005 59.784006">huggingface</tspan></text>
</g>
</g>
</g>
</svg>
